<svg width="18" height="19" viewBox="0 0 18 19" fill="none" xmlns="http://www.w3.org/2000/svg">
<path d="M9 2.23047C7.51664 2.23047 6.0666 2.67034 4.83323 3.49445C3.59986 4.31856 2.63856 5.4899 2.07091 6.86034C1.50325 8.23079 1.35472 9.73879 1.64411 11.1936C1.9335 12.6485 2.64781 13.9849 3.6967 15.0338C4.7456 16.0827 6.08197 16.797 7.53683 17.0864C8.99168 17.3757 10.4997 17.2272 11.8701 16.6596C13.2406 16.0919 14.4119 15.1306 15.236 13.8972C16.0601 12.6639 16.5 11.2138 16.5 9.73047C16.5 8.74555 16.306 7.77028 15.9291 6.86034C15.5522 5.9504 14.9997 5.12361 14.3033 4.42717C13.6069 3.73073 12.7801 3.17828 11.8701 2.80137C10.9602 2.42446 9.98492 2.23047 9 2.23047ZM9 15.7305C7.81332 15.7305 6.65328 15.3786 5.66658 14.7193C4.67989 14.06 3.91085 13.1229 3.45673 12.0266C3.0026 10.9302 2.88378 9.72381 3.11529 8.55993C3.3468 7.39604 3.91825 6.32694 4.75736 5.48783C5.59648 4.64871 6.66558 4.07727 7.82946 3.84576C8.99335 3.61425 10.1997 3.73307 11.2961 4.18719C12.3925 4.64132 13.3295 5.41035 13.9888 6.39705C14.6481 7.38374 15 8.54378 15 9.73047C15 11.3218 14.3679 12.8479 13.2426 13.9731C12.1174 15.0983 10.5913 15.7305 9 15.7305Z" fill="#141414"/>
<path d="M9 5.23052C8.30381 5.23052 7.63613 5.50708 7.14384 5.99936C6.65156 6.49165 6.375 7.15933 6.375 7.85552C6.375 8.05443 6.45402 8.2452 6.59467 8.38585C6.73532 8.5265 6.92609 8.60552 7.125 8.60552C7.32391 8.60552 7.51468 8.5265 7.65533 8.38585C7.79598 8.2452 7.875 8.05443 7.875 7.85552C7.875 7.63302 7.94098 7.41551 8.0646 7.2305C8.18821 7.0455 8.36391 6.9013 8.56948 6.81615C8.77505 6.73101 9.00125 6.70873 9.21948 6.75214C9.43771 6.79554 9.63816 6.90269 9.7955 7.06002C9.95283 7.21736 10.06 7.41781 10.1034 7.63604C10.1468 7.85427 10.1245 8.08047 10.0394 8.28604C9.95422 8.4916 9.81002 8.66731 9.62502 8.79092C9.44001 8.91454 9.2225 8.98052 9 8.98052C8.80109 8.98052 8.61032 9.05954 8.46967 9.20019C8.32902 9.34084 8.25 9.53161 8.25 9.73052V11.2305C8.25 11.4294 8.32902 11.6202 8.46967 11.7608C8.61032 11.9015 8.80109 11.9805 9 11.9805C9.19891 11.9805 9.38968 11.9015 9.53033 11.7608C9.67098 11.6202 9.75 11.4294 9.75 11.2305V10.3605C10.3561 10.1835 10.8777 9.79342 11.2189 9.2621C11.56 8.73078 11.6975 8.09407 11.6062 7.46932C11.5149 6.84457 11.2008 6.27389 10.7218 5.86246C10.2429 5.45104 9.63138 5.2266 9 5.23052Z" fill="#141414"/>
<path d="M9 14.2305C9.41421 14.2305 9.75 13.8947 9.75 13.4805C9.75 13.0663 9.41421 12.7305 9 12.7305C8.58579 12.7305 8.25 13.0663 8.25 13.4805C8.25 13.8947 8.58579 14.2305 9 14.2305Z" fill="#141414"/>
</svg>
