<svg width="18" height="19" viewBox="0 0 18 19" fill="none" xmlns="http://www.w3.org/2000/svg">
<path d="M5.25 5.22754C5.44891 5.22754 5.63968 5.14852 5.78033 5.00787C5.92098 4.86722 6 4.67645 6 4.47754C6 4.27863 5.92098 4.08786 5.78033 3.94721C5.63968 3.80656 5.44891 3.72754 5.25 3.72754H3.75C3.55109 3.72754 3.36032 3.80656 3.21967 3.94721C3.07902 4.08786 3 4.27863 3 4.47754V14.9775C3 15.1765 3.07902 15.3672 3.21967 15.5079C3.36032 15.6485 3.55109 15.7275 3.75 15.7275H5.25C5.44891 15.7275 5.63968 15.6485 5.78033 15.5079C5.92098 15.3672 6 15.1765 6 14.9775C6 14.7786 5.92098 14.5879 5.78033 14.4472C5.63968 14.3066 5.44891 14.2275 5.25 14.2275H4.5V5.22754H5.25Z" fill="#141414"/>
<path d="M15.615 9.29262L13.5 6.29262C13.3853 6.13093 13.2112 6.02123 13.0159 5.9875C12.8205 5.95377 12.6198 5.99876 12.4575 6.11262C12.3764 6.16946 12.3073 6.24181 12.2543 6.32548C12.2013 6.40915 12.1654 6.50249 12.1487 6.60011C12.1319 6.69774 12.1347 6.79771 12.1568 6.89425C12.1789 6.9908 12.2199 7.08201 12.2775 7.16262L13.5675 8.97762H7.5C7.30109 8.97762 7.11032 9.05664 6.96967 9.19729C6.82902 9.33795 6.75 9.52871 6.75 9.72762C6.75 9.92654 6.82902 10.1173 6.96967 10.258C7.11032 10.3986 7.30109 10.4776 7.5 10.4776H13.5L12.15 12.2776C12.0909 12.3564 12.0479 12.4461 12.0235 12.5415C11.999 12.6369 11.9936 12.7362 12.0075 12.8337C12.0215 12.9312 12.0545 13.025 12.1046 13.1097C12.1548 13.1945 12.2212 13.2685 12.3 13.3276C12.4298 13.425 12.5877 13.4776 12.75 13.4776C12.8664 13.4776 12.9813 13.4505 13.0854 13.3984C13.1896 13.3464 13.2801 13.2708 13.35 13.1776L15.6 10.1776C15.6961 10.0508 15.7493 9.89666 15.752 9.73757C15.7547 9.57848 15.7067 9.42266 15.615 9.29262Z" fill="#141414"/>
</svg>
